<svg width="156" height="46" viewBox="0 0 156 46" fill="none" xmlns="http://www.w3.org/2000/svg">
<rect width="46" height="46" rx="6" fill="url(#paint0_linear_113_3194)"/>
<path d="M27.7408 13H32.6499C32.8435 13 33 13.1578 33 13.3529V18.0947C33.0019 18.2898 32.8473 18.4495 32.6537 18.4514H32.6499H31.2611C31.0676 18.4514 30.9111 18.2936 30.9111 18.0985V16.6343L16.1106 30.894H19.1547C19.3482 30.894 19.5048 31.0518 19.5048 31.2469V32.6471C19.5048 32.8422 19.3482 33 19.1547 33H13.35C13.1565 33 13 32.8422 13 32.6471V30.9007L29.4047 15.1041H27.7408C27.5473 15.1041 27.3907 14.9463 27.3907 14.7511V13.3529C27.3907 13.1578 27.5473 13 27.7408 13ZM15.087 15.0505H24.413C24.6065 15.0505 24.763 14.8927 24.763 14.6976V13.3529C24.763 13.1588 24.6074 13.001 24.4149 13H13.35C13.1565 13 13 13.1578 13 13.3529V18.1521C13 18.3472 13.1565 18.505 13.35 18.505H14.7388C14.9314 18.504 15.087 18.3462 15.087 18.1521V15.0505ZM30.9111 30.894H22.4749C22.2814 30.894 22.1249 31.0518 22.1249 31.2469V32.6471C22.1249 32.8422 22.2814 33 22.4749 33H32.6499C32.8435 33 33 32.8422 33 32.6471V27.6978C32.999 27.5027 32.8435 27.3458 32.6499 27.3449H31.2611C31.0676 27.3449 30.9111 27.5027 30.9111 27.6978V30.894Z" fill="white"/>
<path d="M60.15 32.9625C59.1333 32.9625 58.2167 32.8708 57.4 32.6875C56.6 32.5042 55.8667 32.2542 55.2 31.9375C54.55 31.6042 53.9583 31.2125 53.425 30.7625C52.9083 30.3125 52.4333 29.8292 52 29.3125L55.75 26.3125C56.2833 27.1292 56.9167 27.7625 57.65 28.2125C58.3833 28.6625 59.2667 28.8875 60.3 28.8875C61.05 28.8875 61.6167 28.7292 62 28.4125C62.3833 28.0958 62.575 27.6875 62.575 27.1875C62.575 26.8875 62.5 26.6375 62.35 26.4375C62.2 26.2375 61.9667 26.0625 61.65 25.9125C61.3333 25.7625 60.9417 25.6292 60.475 25.5125C60.0083 25.3792 59.45 25.2375 58.8 25.0875C58.1333 24.9375 57.4583 24.7542 56.775 24.5375C56.0917 24.3042 55.475 23.9958 54.925 23.6125C54.375 23.2125 53.925 22.7042 53.575 22.0875C53.225 21.4708 53.05 20.6958 53.05 19.7625C53.05 18.9625 53.2167 18.2208 53.55 17.5375C53.8833 16.8542 54.3417 16.2625 54.925 15.7625C55.5083 15.2625 56.2083 14.8708 57.025 14.5875C57.8417 14.3042 58.7417 14.1625 59.725 14.1625C60.5583 14.1625 61.3167 14.2375 62 14.3875C62.6833 14.5208 63.3083 14.7292 63.875 15.0125C64.4583 15.2792 65 15.6208 65.5 16.0375C66.0167 16.4375 66.5167 16.8958 67 17.4125L63.5 20.1375C63.0667 19.4542 62.5417 18.9292 61.925 18.5625C61.3083 18.1792 60.5417 17.9875 59.625 17.9875C58.875 17.9875 58.325 18.1542 57.975 18.4875C57.625 18.8208 57.45 19.1958 57.45 19.6125C57.45 19.8958 57.5333 20.1292 57.7 20.3125C57.8833 20.4958 58.1333 20.6542 58.45 20.7875C58.7833 20.9042 59.175 21.0208 59.625 21.1375C60.0917 21.2375 60.6 21.3542 61.15 21.4875C61.8333 21.6375 62.525 21.8292 63.225 22.0625C63.925 22.2792 64.5583 22.5958 65.125 23.0125C65.7083 23.4125 66.1833 23.9292 66.55 24.5625C66.9167 25.1958 67.1 26.0042 67.1 26.9875C67.1 27.8542 66.925 28.6542 66.575 29.3875C66.225 30.1042 65.7417 30.7292 65.125 31.2625C64.5083 31.7958 63.775 32.2125 62.925 32.5125C62.075 32.8125 61.15 32.9625 60.15 32.9625Z" fill="#000514"/>
<path d="M73.2703 32.9875C72.5703 32.9875 71.937 32.8958 71.3703 32.7125C70.8036 32.5292 70.3203 32.2625 69.9203 31.9125C69.5203 31.5625 69.212 31.1375 68.9953 30.6375C68.7786 30.1375 68.6703 29.5708 68.6703 28.9375C68.6703 28.2375 68.812 27.6042 69.0953 27.0375C69.3786 26.4708 69.787 25.9958 70.3203 25.6125C70.8536 25.2125 71.4953 24.9042 72.2453 24.6875C72.9953 24.4708 73.837 24.3625 74.7703 24.3625H77.8703V24.2625C77.8703 23.6958 77.6703 23.2458 77.2703 22.9125C76.887 22.5625 76.3203 22.3875 75.5703 22.3875C74.937 22.3875 74.412 22.5042 73.9953 22.7375C73.5786 22.9708 73.2536 23.3208 73.0203 23.7875L69.0453 22.0125C69.762 21.0958 70.6286 20.3542 71.6453 19.7875C72.6786 19.2208 73.9786 18.9375 75.5453 18.9375C77.5953 18.9375 79.1703 19.4208 80.2703 20.3875C81.3703 21.3375 81.9203 22.6958 81.9203 24.4625V32.7125H77.8953V30.9125C77.4453 31.5458 76.8203 32.0542 76.0203 32.4375C75.2203 32.8042 74.3036 32.9875 73.2703 32.9875ZM74.6953 29.6625C75.0453 29.6625 75.387 29.6125 75.7203 29.5125C76.0703 29.3958 76.387 29.2458 76.6703 29.0625C76.9703 28.8625 77.2286 28.6375 77.4453 28.3875C77.662 28.1208 77.8203 27.8458 77.9203 27.5625V27.2875H75.3453C74.5453 27.2875 73.9703 27.4125 73.6203 27.6625C73.2703 27.8958 73.0953 28.2042 73.0953 28.5875C73.0953 29.3042 73.6286 29.6625 74.6953 29.6625Z" fill="#000514"/>
<path d="M84.1582 13.0125H88.3332V32.7125H84.1582V13.0125Z" fill="#000514"/>
<path d="M97.3541 32.9625C96.2541 32.9625 95.2624 32.7875 94.3791 32.4375C93.4958 32.0708 92.7458 31.5708 92.1291 30.9375C91.5291 30.3042 91.0624 29.5625 90.7291 28.7125C90.3958 27.8625 90.2291 26.9458 90.2291 25.9625C90.2291 24.9958 90.4041 24.0875 90.7541 23.2375C91.1208 22.3875 91.6208 21.6458 92.2541 21.0125C92.8874 20.3625 93.6374 19.8542 94.5041 19.4875C95.3708 19.1208 96.3124 18.9375 97.3291 18.9375C98.3624 18.9375 99.3041 19.1125 100.154 19.4625C101.021 19.8125 101.762 20.3042 102.379 20.9375C103.012 21.5542 103.496 22.2875 103.829 23.1375C104.179 23.9708 104.354 24.8875 104.354 25.8875V27.3625H94.3041C94.5374 28.0458 94.9208 28.5708 95.4541 28.9375C95.9874 29.2875 96.6458 29.4625 97.4291 29.4625C98.0791 29.4625 98.6291 29.3375 99.0791 29.0875C99.5458 28.8375 99.9208 28.4875 100.204 28.0375L103.604 30.0125C102.904 30.9458 102.062 31.6708 101.079 32.1875C100.112 32.7042 98.8708 32.9625 97.3541 32.9625ZM97.3541 22.4375C96.6708 22.4375 96.0791 22.6042 95.5791 22.9375C95.0791 23.2542 94.6958 23.6958 94.4291 24.2625H100.204C99.9708 23.6625 99.6124 23.2125 99.1291 22.9125C98.6458 22.5958 98.0541 22.4375 97.3541 22.4375Z" fill="#000514"/>
<path d="M112.152 32.9875C110.369 32.9875 108.936 32.6708 107.852 32.0375C106.769 31.3875 105.977 30.4625 105.477 29.2625L109.702 28.0625C109.886 28.6125 110.211 29.0208 110.677 29.2875C111.144 29.5542 111.669 29.6875 112.252 29.6875C112.786 29.6875 113.186 29.5875 113.452 29.3875C113.736 29.1708 113.877 28.9208 113.877 28.6375C113.877 28.4542 113.802 28.3042 113.652 28.1875C113.502 28.0542 113.294 27.9458 113.027 27.8625C112.777 27.7625 112.477 27.6792 112.127 27.6125C111.777 27.5292 111.394 27.4458 110.977 27.3625C110.394 27.2458 109.811 27.1125 109.227 26.9625C108.661 26.7958 108.136 26.5625 107.652 26.2625C107.186 25.9625 106.802 25.5792 106.502 25.1125C106.219 24.6292 106.077 24.0208 106.077 23.2875C106.077 22.6875 106.219 22.1208 106.502 21.5875C106.786 21.0375 107.186 20.5625 107.702 20.1625C108.219 19.7625 108.836 19.4542 109.552 19.2375C110.269 19.0042 111.061 18.8875 111.927 18.8875C112.711 18.8875 113.411 18.9625 114.027 19.1125C114.644 19.2625 115.194 19.4792 115.677 19.7625C116.177 20.0292 116.619 20.3625 117.002 20.7625C117.402 21.1625 117.769 21.6125 118.102 22.1125L114.102 23.3375C113.686 22.4875 112.952 22.0625 111.902 22.0625C111.386 22.0625 111.002 22.1458 110.752 22.3125C110.502 22.4625 110.377 22.6792 110.377 22.9625C110.377 23.2792 110.611 23.5125 111.077 23.6625C111.561 23.8125 112.277 23.9792 113.227 24.1625C113.794 24.2792 114.369 24.4208 114.952 24.5875C115.552 24.7542 116.094 24.9958 116.577 25.3125C117.077 25.6125 117.477 26.0125 117.777 26.5125C118.094 26.9958 118.252 27.6125 118.252 28.3625C118.252 28.9292 118.127 29.4875 117.877 30.0375C117.627 30.5875 117.252 31.0875 116.752 31.5375C116.252 31.9708 115.619 32.3208 114.852 32.5875C114.086 32.8542 113.186 32.9875 112.152 32.9875Z" fill="#000514"/>
<path d="M129.775 32.9625C128.475 32.9625 127.259 32.7208 126.125 32.2375C124.992 31.7375 124 31.0625 123.15 30.2125C122.317 29.3625 121.65 28.3708 121.15 27.2375C120.667 26.1041 120.425 24.8875 120.425 23.5875C120.425 22.2875 120.667 21.0708 121.15 19.9375C121.65 18.8041 122.317 17.8125 123.15 16.9625C124 16.1125 124.992 15.4458 126.125 14.9625C127.259 14.4625 128.475 14.2125 129.775 14.2125C131.075 14.2125 132.292 14.4625 133.425 14.9625C134.575 15.4458 135.567 16.1125 136.4 16.9625C137.25 17.8125 137.917 18.8041 138.4 19.9375C138.9 21.0708 139.15 22.2875 139.15 23.5875C139.15 24.8875 138.9 26.1041 138.4 27.2375C137.917 28.3708 137.25 29.3625 136.4 30.2125C135.567 31.0625 134.575 31.7375 133.425 32.2375C132.292 32.7208 131.075 32.9625 129.775 32.9625ZM129.775 30.3125C130.709 30.3125 131.575 30.1375 132.375 29.7875C133.192 29.4375 133.9 28.9541 134.5 28.3375C135.1 27.7208 135.567 27.0125 135.9 26.2125C136.25 25.3958 136.425 24.5208 136.425 23.5875C136.425 22.6708 136.25 21.8041 135.9 20.9875C135.567 20.1541 135.1 19.4375 134.5 18.8375C133.9 18.2208 133.192 17.7375 132.375 17.3875C131.575 17.0208 130.709 16.8375 129.775 16.8375C128.842 16.8375 127.967 17.0208 127.15 17.3875C126.35 17.7375 125.65 18.2208 125.05 18.8375C124.467 19.4375 124 20.1541 123.65 20.9875C123.317 21.8041 123.15 22.6708 123.15 23.5875C123.15 24.5208 123.317 25.3958 123.65 26.2125C124 27.0125 124.467 27.7208 125.05 28.3375C125.65 28.9541 126.35 29.4375 127.15 29.7875C127.967 30.1375 128.842 30.3125 129.775 30.3125Z" fill="url(#paint1_linear_113_3194)"/>
<path d="M148.717 32.9625C146.817 32.9625 145.233 32.6208 143.967 31.9375C142.717 31.2375 141.658 30.2958 140.792 29.1125L143.167 27.2375C143.833 28.3208 144.625 29.1208 145.542 29.6375C146.458 30.1375 147.492 30.3875 148.642 30.3875C149.875 30.3875 150.8 30.1208 151.417 29.5875C152.05 29.0541 152.367 28.3708 152.367 27.5375C152.367 26.9875 152.233 26.5458 151.967 26.2125C151.7 25.8625 151.342 25.5791 150.892 25.3625C150.458 25.1291 149.95 24.9458 149.367 24.8125C148.8 24.6791 148.208 24.5458 147.592 24.4125C146.892 24.2625 146.192 24.0958 145.492 23.9125C144.792 23.7125 144.167 23.4375 143.617 23.0875C143.067 22.7208 142.617 22.2541 142.267 21.6875C141.933 21.1041 141.767 20.3541 141.767 19.4375C141.767 18.7208 141.917 18.0458 142.217 17.4125C142.533 16.7791 142.967 16.2291 143.517 15.7625C144.083 15.2791 144.75 14.9041 145.517 14.6375C146.283 14.3541 147.125 14.2125 148.042 14.2125C149.608 14.2125 150.933 14.4875 152.017 15.0375C153.117 15.5708 154.108 16.3375 154.992 17.3375L152.742 19.1125C152.475 18.7458 152.192 18.4208 151.892 18.1375C151.592 17.8375 151.25 17.5791 150.867 17.3625C150.5 17.1458 150.083 16.9791 149.617 16.8625C149.167 16.7458 148.642 16.6875 148.042 16.6875C146.808 16.6875 145.917 16.9458 145.367 17.4625C144.833 17.9625 144.567 18.6125 144.567 19.4125C144.567 19.8791 144.692 20.2625 144.942 20.5625C145.192 20.8458 145.525 21.0875 145.942 21.2875C146.358 21.4708 146.833 21.6291 147.367 21.7625C147.917 21.8791 148.492 21.9958 149.092 22.1125C149.808 22.2625 150.525 22.4458 151.242 22.6625C151.975 22.8625 152.625 23.1625 153.192 23.5625C153.775 23.9458 154.25 24.4541 154.617 25.0875C154.983 25.7041 155.167 26.5125 155.167 27.5125C155.167 28.2125 155.025 28.8958 154.742 29.5625C154.458 30.2125 154.042 30.7875 153.492 31.2875C152.942 31.7875 152.267 32.1958 151.467 32.5125C150.667 32.8125 149.75 32.9625 148.717 32.9625Z" fill="url(#paint2_linear_113_3194)"/>
<defs>
<linearGradient id="paint0_linear_113_3194" x1="1.04972" y1="-2.53078e-07" x2="56.1551" y2="54.8915" gradientUnits="userSpaceOnUse">
<stop stop-color="#F44238"/>
<stop offset="1" stop-color="#9B1578"/>
</linearGradient>
<linearGradient id="paint1_linear_113_3194" x1="121.218" y1="14.2125" x2="140.034" y2="48.941" gradientUnits="userSpaceOnUse">
<stop stop-color="#F44238"/>
<stop offset="1" stop-color="#9B1578"/>
</linearGradient>
<linearGradient id="paint2_linear_113_3194" x1="121.218" y1="14.2125" x2="140.034" y2="48.941" gradientUnits="userSpaceOnUse">
<stop stop-color="#F44238"/>
<stop offset="1" stop-color="#9B1578"/>
</linearGradient>
</defs>
</svg>
